<?xml version="1.0" encoding="UTF-8"?>
<svg version="1.1" xmlns="http://www.w3.org/2000/svg" width="800" height="427">
<path d="M0 0 C264 0 528 0 800 0 C800 140.91 800 281.82 800 427 C536 427 272 427 0 427 C0 286.09 0 145.18 0 0 Z " fill="#FEFEFE" transform="translate(0,0)"/>
<path d="M0 0 C2.01830423 0.00539916 4.03638964 0.00000226 6.0546875 -0.00634766 C7.34375 -0.00505859 8.6328125 -0.00376953 9.9609375 -0.00244141 C11.12270508 -0.00131348 12.28447266 -0.00018555 13.48144531 0.00097656 C16.7578125 0.13037109 16.7578125 0.13037109 22.7578125 1.13037109 C22.7578125 28.85037109 22.7578125 56.57037109 22.7578125 85.13037109 C24.7378125 85.13037109 26.7178125 85.13037109 28.7578125 85.13037109 C29.4178125 85.46037109 30.0778125 85.79037109 30.7578125 86.13037109 C33.47043366 86.3626357 36.16554376 86.54973345 38.8828125 86.69287109 C40.01396484 86.75764648 40.01396484 86.75764648 41.16796875 86.82373047 C43.03103138 86.92985429 44.89439774 87.0306211 46.7578125 87.13037109 C46.7578125 86.47037109 46.7578125 85.81037109 46.7578125 85.13037109 C53.6878125 85.13037109 60.6178125 85.13037109 67.7578125 85.13037109 C67.75257568 83.12168945 67.74733887 81.11300781 67.74194336 79.04345703 C67.72537149 72.40580143 67.71432683 65.76814491 67.70600033 59.13047409 C67.70078238 55.10617732 67.69370446 51.08190175 67.68237305 47.05761719 C67.67150554 43.17376751 67.66552745 39.28993823 67.66293526 35.40607452 C67.66108798 33.92451913 67.65748075 32.44296486 67.65208244 30.96141815 C67.64482076 28.88587535 67.64382373 26.81041675 67.64428711 24.73486328 C67.6420665 23.55349792 67.63984589 22.37213257 67.63755798 21.15496826 C67.73854326 18.61502386 68.00847183 16.54334874 68.7578125 14.13037109 C70.0778125 14.13037109 71.3978125 14.13037109 72.7578125 14.13037109 C74.21822478 17.05119565 73.87710046 19.61338478 73.87133789 22.875 C73.87148392 23.56779556 73.87162994 24.26059113 73.8717804 24.97438049 C73.87108268 27.2685965 73.86329692 29.56273173 73.85546875 31.85693359 C73.85360407 33.44591223 73.8521804 35.03489144 73.85118103 36.62387085 C73.84735981 40.80946434 73.83753289 44.99502323 73.82647705 49.18060303 C73.81445764 54.20078822 73.80985881 59.22098497 73.80402374 64.24118042 C73.79432093 71.87093473 73.77516162 79.50061307 73.7578125 87.13037109 C88.6078125 87.13037109 103.4578125 87.13037109 118.7578125 87.13037109 C118.7578125 66.34037109 118.7578125 45.55037109 118.7578125 24.13037109 C128.42857061 24.73479348 138.09672554 25.38721056 147.7578125 26.13037109 C147.7578125 46.59037109 147.7578125 67.05037109 147.7578125 88.13037109 C162.9378125 88.13037109 178.1178125 88.13037109 193.7578125 88.13037109 C193.7578125 67.34037109 193.7578125 46.55037109 193.7578125 25.13037109 C195.4078125 24.80037109 197.0578125 24.47037109 198.7578125 24.13037109 C199.0878125 44.92037109 199.4178125 65.71037109 199.7578125 87.13037109 C213.86347682 88.03804308 213.86347682 88.03804308 227.97045898 88.92480469 C229.73165893 89.04204445 231.49281169 89.15999626 233.25390625 89.27880859 C234.17723755 89.33335205 235.10056885 89.38789551 236.05187988 89.4440918 C236.92477661 89.5047583 237.79767334 89.5654248 238.69702148 89.62792969 C239.83952614 89.70120987 239.83952614 89.70120987 241.00511169 89.77597046 C241.87269859 89.95139877 241.87269859 89.95139877 242.7578125 90.13037109 C243.0878125 90.79037109 243.4178125 91.45037109 243.7578125 92.13037109 C232.05211743 93.34732224 220.38204143 93.26495167 208.62768555 93.24389648 C206.40904746 93.24361399 204.19040928 93.24377356 201.97177124 93.24433899 C195.98305435 93.24462454 189.99435772 93.23876708 184.00564551 93.23176503 C177.73429961 93.22549104 171.46295318 93.2249245 165.19160461 93.22373962 C154.67664262 93.22099002 144.16168684 93.2147544 133.64672852 93.20581055 C122.82251014 93.19661329 111.99829377 93.18954381 101.17407227 93.18530273 C100.17108437 93.18490865 100.17108437 93.18490865 99.14783408 93.1845066 C95.79293631 93.18320144 92.43803853 93.18193776 89.08314073 93.1806947 C61.30802619 93.17025725 33.53291987 93.15268092 5.7578125 93.13037109 C5.7578125 94.78037109 5.7578125 96.43037109 5.7578125 98.13037109 C4.4378125 98.46037109 3.1178125 98.79037109 1.7578125 99.13037109 C1.4278125 97.15037109 1.0978125 95.17037109 0.7578125 93.13037109 C-3.42367627 93.19945822 -7.60421504 93.28752351 -11.78491211 93.39282227 C-13.20569952 93.42597667 -14.62661563 93.45403801 -16.04760742 93.47680664 C-18.0960957 93.51052956 -20.1434147 93.56284855 -22.19140625 93.61865234 C-24.03738403 93.65792847 -24.03738403 93.65792847 -25.9206543 93.69799805 C-29.53159187 94.16804365 -31.45580166 94.7921923 -34.2421875 97.13037109 C-35.13026493 99.47604661 -35.13026493 99.47604661 -35.2421875 102.13037109 C-35.34249268 103.03835449 -35.44279785 103.94633789 -35.54614258 104.88183594 C-37.09777529 117.33198271 -37.09777529 117.33198271 -34.07617188 128.96337891 C-30.94387575 131.79074289 -27.24435328 133.02790936 -23.2421875 134.13037109 C-22.9121875 134.46037109 -22.5821875 134.79037109 -22.2421875 135.13037109 C-20.89471666 135.36112191 -19.53841185 135.54190172 -18.1796875 135.69287109 C-16.8803125 135.83724609 -15.5809375 135.98162109 -14.2421875 136.13037109 C-14.21713135 136.77586914 -14.1920752 137.42136719 -14.16625977 138.08642578 C-14.05004317 141.01793003 -13.92743308 143.94913326 -13.8046875 146.88037109 C-13.76537109 147.89615234 -13.72605469 148.91193359 -13.68554688 149.95849609 C-13.64365234 150.93818359 -13.60175781 151.91787109 -13.55859375 152.92724609 C-13.52193604 153.82797852 -13.48527832 154.72871094 -13.44750977 155.65673828 C-13.28567825 158.4138621 -13.28567825 158.4138621 -12.2421875 162.13037109 C-15.8721875 162.13037109 -19.5021875 162.13037109 -23.2421875 162.13037109 C-23.23058594 163.33048828 -23.21898437 164.53060547 -23.20703125 165.76708984 C-23.12611469 178.25352664 -23.54129831 190.66455621 -24.2421875 203.13037109 C-24.86867188 203.40751953 -25.49515625 203.68466797 -26.140625 203.97021484 C-26.95789063 204.33244141 -27.77515625 204.69466797 -28.6171875 205.06787109 C-29.42929688 205.42751953 -30.24140625 205.78716797 -31.078125 206.15771484 C-32.47902535 206.78736139 -33.86844034 207.44349751 -35.2421875 208.13037109 C-35.30104921 211.92197073 -35.33606974 215.71345028 -35.3671875 219.50537109 C-35.39232422 221.09671875 -35.39232422 221.09671875 -35.41796875 222.72021484 C-35.45921322 229.44306371 -34.86389586 235.60148658 -33.2421875 242.13037109 C-30.6021875 241.80037109 -27.9621875 241.47037109 -25.2421875 241.13037109 C-24.9121875 237.50037109 -24.5821875 233.87037109 -24.2421875 230.13037109 C-21.95180278 229.78834031 -19.65978563 229.45723657 -17.3671875 229.13037109 C-16.09101563 228.94474609 -14.81484375 228.75912109 -13.5 228.56787109 C-10.30799663 228.17354094 -7.1918341 228.08445256 -3.97607422 228.10302734 C-3.08636932 228.1069751 -2.19666443 228.11092285 -1.27999878 228.11499023 C-0.60752106 228.12006592 0.06495667 228.1251416 0.7578125 228.13037109 C0.75559189 227.58072693 0.75337128 227.03108276 0.75108337 226.46478271 C0.72877564 220.68860532 0.7138008 214.91244037 0.70288086 209.13623047 C0.69788522 206.98713686 0.69108643 204.83804659 0.68237305 202.68896484 C0.59184095 179.76836816 0.59184095 179.76836816 1.7578125 170.13037109 C2.7478125 170.13037109 3.7378125 170.13037109 4.7578125 170.13037109 C5.707944 173.33369344 5.87913023 176.20638239 5.87133789 179.54150391 C5.87126236 180.62232239 5.87118683 181.70314087 5.87110901 182.81671143 C5.86594772 183.97725037 5.86078644 185.13778931 5.85546875 186.33349609 C5.85334633 188.12288605 5.85334633 188.12288605 5.85118103 189.94842529 C5.84558288 193.75909938 5.83303069 197.56971476 5.8203125 201.38037109 C5.81529726 203.96370358 5.8107344 206.54703698 5.80664062 209.13037109 C5.79561405 215.46372447 5.77887774 221.79704359 5.7578125 228.13037109 C11.56036603 228.01231574 17.36274138 227.88808147 23.16503906 227.75805664 C25.13993712 227.71467907 27.11487337 227.67300609 29.08984375 227.63305664 C31.9245964 227.57542236 34.75915628 227.5117084 37.59375 227.44677734 C38.92350357 227.4217086 38.92350357 227.4217086 40.28012085 227.39613342 C44.65706405 227.41951898 44.65706405 227.41951898 48.7578125 226.13037109 C48.7578125 220.85037109 48.7578125 215.57037109 48.7578125 210.13037109 C50.7378125 210.13037109 52.7178125 210.13037109 54.7578125 210.13037109 C54.0978125 216.07037109 53.4378125 222.01037109 52.7578125 228.13037109 C57.6039714 228.41921195 57.6039714 228.41921195 62.45068359 228.69848633 C67.53559028 229.01925998 67.53559028 229.01925998 69.7578125 230.13037109 C70.3828125 232.19287109 70.3828125 232.19287109 70.7578125 234.13037109 C78.12606355 235.26550188 85.43721326 235.35054104 92.8828125 235.44677734 C94.23901952 235.46738683 95.5952207 235.48838423 96.95141602 235.50975037 C100.49569929 235.56455912 104.04003649 235.61414742 107.58441162 235.66259766 C111.21127031 235.7131164 114.83805209 235.76864281 118.46484375 235.82373047 C125.56243311 235.93080694 132.66009168 236.03236088 139.7578125 236.13037109 C139.7578125 233.82037109 139.7578125 231.51037109 139.7578125 229.13037109 C174.7378125 228.80037109 209.7178125 228.47037109 245.7578125 228.13037109 C247.4078125 217.24037109 249.0578125 206.35037109 250.7578125 195.13037109 C251.4178125 191.50037109 252.0778125 187.87037109 252.7578125 184.13037109 C254.4078125 184.13037109 256.0578125 184.13037109 257.7578125 184.13037109 C257.25391079 191.89632177 255.68372529 199.16636758 253.7578125 206.69287109 C253.21072727 208.83863227 252.66895717 210.98575642 252.1328125 213.13427734 C251.89304687 214.07086182 251.65328125 215.00744629 251.40625 215.97241211 C250.58364938 219.97856386 250.20944806 224.06565106 249.7578125 228.13037109 C258.6678125 228.13037109 267.5778125 228.13037109 276.7578125 228.13037109 C276.7578125 215.26037109 276.7578125 202.39037109 276.7578125 189.13037109 C273.7878125 188.80037109 270.8178125 188.47037109 267.7578125 188.13037109 C267.4278125 186.81037109 267.0978125 185.49037109 266.7578125 184.13037109 C269.3978125 183.80037109 272.0378125 183.47037109 274.7578125 183.13037109 C275.66476808 178.4683575 275.92513612 173.93193716 275.96313477 169.19726562 C275.97303436 168.42585739 275.98293396 167.65444916 275.99313354 166.85966492 C276.02454564 164.32753495 276.04942511 161.79538627 276.07421875 159.26318359 C276.09480583 157.50055472 276.11580275 155.7379306 276.13719177 153.97531128 C276.19223133 149.34924169 276.24172007 144.72312888 276.29003906 140.09698486 C276.34038683 135.37109559 276.39600342 130.64526862 276.45117188 125.91943359 C276.55853168 116.65646606 276.66002537 107.39344429 276.7578125 98.13037109 C278.36017027 98.40088985 279.96018154 98.68533083 281.55908203 98.97558594 C282.45031769 99.13247894 283.34155334 99.28937195 284.25979614 99.45101929 C288.17008959 100.51444904 290.13181958 102.6912558 292.6328125 105.75537109 C293.12692627 106.32513672 293.62104004 106.89490234 294.13012695 107.48193359 C300.03685978 114.40841985 305.46113578 121.73237748 310.7578125 129.13037109 C311.17160156 129.70819336 311.58539062 130.28601563 312.01171875 130.88134766 C314.65267958 134.59220268 317.2208177 138.34785892 319.7578125 142.13037109 C320.14066406 142.69997559 320.52351563 143.26958008 320.91796875 143.85644531 C332.77055259 161.58153459 342.19586636 179.8212085 338.09765625 201.64599609 C335.35957637 211.65006283 330.48093254 221.18278925 321.7578125 227.13037109 C317.9362587 228.40422236 314.3509678 228.25390298 310.37109375 228.22802734 C309.55408493 228.2266124 308.73707611 228.22519745 307.89530945 228.22373962 C305.28693982 228.21814404 302.67865616 228.20559238 300.0703125 228.19287109 C298.30143353 228.18785552 296.53255322 228.18329271 294.76367188 228.17919922 C290.42835231 228.16817605 286.09309698 228.15091447 281.7578125 228.13037109 C281.77739014 229.15227539 281.77739014 229.15227539 281.79736328 230.19482422 C281.80751465 231.09136719 281.81766602 231.98791016 281.828125 232.91162109 C281.84770264 234.24290039 281.84770264 234.24290039 281.86767578 235.60107422 C281.71363758 239.14737586 280.88359135 241.29599929 278.7578125 244.13037109 C273.22462981 246.69618037 267.45414988 246.56987834 261.46826172 246.73779297 C260.3314842 246.77517326 259.19470669 246.81255356 258.02348137 246.85106659 C243.91411582 247.27573295 229.79961083 247.33810711 215.68505335 247.40076256 C211.74459448 247.41941104 207.80416989 247.4436626 203.86373901 247.46740723 C194.71051664 247.52173834 185.55726826 247.57010155 176.40400696 247.61734772 C124.41734175 247.81510501 124.41734175 247.81510501 72.4375 248.59912109 C71.53727238 248.61792831 70.63704475 248.63673553 69.70953751 248.65611267 C67.24873528 248.70915594 64.78820684 248.76873233 62.32763672 248.83154297 C61.63500103 248.84666931 60.94236534 248.86179565 60.22874069 248.87738037 C56.3217579 248.98919365 52.59975511 249.42607899 48.7578125 250.13037109 C47.28684573 250.21363633 45.81316339 250.26082169 44.33984375 250.26318359 C43.56060547 250.26447266 42.78136719 250.26576172 41.97851562 250.26708984 C41.18380859 250.26322266 40.38910156 250.25935547 39.5703125 250.25537109 C38.76400391 250.25923828 37.95769531 250.26310547 37.12695312 250.26708984 C36.35158203 250.26580078 35.57621094 250.26451172 34.77734375 250.26318359 C34.07714111 250.26205566 33.37693848 250.26092773 32.65551758 250.25976562 C30.7578125 250.13037109 30.7578125 250.13037109 27.7578125 249.13037109 C19.45891494 247.96639102 11.08561205 248.08034529 2.7265625 248.09521484 C-0.61914686 248.08742821 -3.96484451 248.07747976 -7.31054688 248.06713867 C-9.61266698 248.06763002 -11.91481678 248.08080693 -14.21679688 248.10620117 C-17.57015233 248.13921225 -20.92009371 248.12182143 -24.2734375 248.09521484 C-25.81408875 248.12904518 -25.81408875 248.12904518 -27.38586426 248.16355896 C-34.32358746 248.04640708 -34.32358746 248.04640708 -37.00244141 245.37503052 C-40.97323354 239.17895499 -41.2421875 234.53894699 -41.2421875 227.13037109 C-69.6221875 227.13037109 -98.0021875 227.13037109 -127.2421875 227.13037109 C-127.2421875 226.47037109 -127.2421875 225.81037109 -127.2421875 225.13037109 C-128.2321875 224.80037109 -129.2221875 224.47037109 -130.2421875 224.13037109 C-131.6841035 221.47748252 -132.95748537 218.88207188 -134.1796875 216.13037109 C-134.68145508 215.03402344 -134.68145508 215.03402344 -135.19335938 213.91552734 C-135.87868005 212.41283962 -136.55497385 210.90600738 -137.22290039 209.39550781 C-137.87943492 207.93650724 -138.56180271 206.48872335 -139.27514648 205.05664062 C-142.54614663 198.31455047 -143.95235808 191.31911102 -145.4296875 184.00537109 C-145.81930664 182.15105469 -145.81930664 182.15105469 -146.21679688 180.25927734 C-152.98494947 147.69519432 -148.94874948 114.03700385 -134.2421875 84.13037109 C-133.79963623 83.22230713 -133.79963623 83.22230713 -133.34814453 82.29589844 C-131.68469077 78.88715157 -129.98422557 75.49958759 -128.2421875 72.13037109 C-127.5821875 72.13037109 -126.9221875 72.13037109 -126.2421875 72.13037109 C-126.01015625 71.27314453 -125.778125 70.41591797 -125.5390625 69.53271484 C-124.0829669 65.7126568 -122.02751446 62.83981879 -119.4921875 59.69287109 C-119.04117676 59.1222998 -118.59016602 58.55172852 -118.12548828 57.96386719 C-116.84007022 56.34520969 -115.54281651 54.73681222 -114.2421875 53.13037109 C-113.67757812 52.42009766 -113.11296875 51.70982422 -112.53125 50.97802734 C-109.45440813 47.22971998 -106.04705154 44.0614099 -102.34765625 40.93115234 C-100.96857931 39.75164498 -99.61527964 38.54115308 -98.29296875 37.29833984 C-71.49997773 12.24051396 -36.3164004 -0.11571402 0 0 Z " fill="#030303" transform="translate(257.2421875,65.86962890625)"/>
<path d="M0 0 C1.28879059 -0.00307663 2.57758118 -0.00615326 3.90542603 -0.00932312 C5.31113867 -0.00242033 6.71684957 0.00484701 8.12255859 0.01245117 C9.57262125 0.01364461 11.02268468 0.01409579 12.4727478 0.01383972 C15.51410762 0.01540338 18.55534955 0.0236784 21.59667969 0.03710938 C25.46979801 0.05400797 29.3427858 0.05792608 33.21593666 0.05716419 C36.21362525 0.05743813 39.21128604 0.06295632 42.2089653 0.07016563 C43.63531662 0.07332051 45.06167105 0.07531216 46.48802567 0.07605934 C54.26725411 0.0845889 61.92454702 0.24720491 69.64599609 1.24291992 C69.64599609 1.90291992 69.64599609 2.56291992 69.64599609 3.24291992 C70.96599609 3.24291992 72.28599609 3.24291992 73.64599609 3.24291992 C73.64599609 3.90291992 73.64599609 4.56291992 73.64599609 5.24291992 C72.95449463 5.26797607 72.26299316 5.29303223 71.55053711 5.31884766 C68.43631743 5.43444154 65.3224282 5.55733234 62.20849609 5.68041992 C60.57557617 5.73939453 60.57557617 5.73939453 58.90966797 5.79956055 C57.87519531 5.84145508 56.84072266 5.88334961 55.77490234 5.92651367 C54.81656494 5.96317139 53.85822754 5.9998291 52.87084961 6.03759766 C50.67460684 6.00126417 50.67460684 6.00126417 49.64599609 7.24291992 C49.48769652 8.6353699 49.36934531 10.032456 49.27099609 11.43041992 C48.86634774 15.58304074 47.78643595 18.61347843 45.64599609 22.24291992 C46.63599609 22.24291992 47.62599609 22.24291992 48.64599609 22.24291992 C48.64599609 29.17291992 48.64599609 36.10291992 48.64599609 43.24291992 C55.57599609 43.24291992 62.50599609 43.24291992 69.64599609 43.24291992 C69.31599609 44.56291992 68.98599609 45.88291992 68.64599609 47.24291992 C41.91599609 47.57291992 15.18599609 47.90291992 -12.35400391 48.24291992 C-8.22395414 56.64769081 -8.22395414 56.64769081 -4.35400391 60.24291992 C1.88965494 61.44369038 8.16265056 61.41828425 14.50537109 61.44604492 C16.04381683 61.45459503 16.04381683 61.45459503 17.61334229 61.46331787 C19.77493269 61.47272305 21.93653713 61.47928392 24.09814453 61.4831543 C27.37216703 61.49284936 30.64555827 61.52391195 33.91943359 61.55541992 C49.17974525 62.20835325 49.17974525 62.20835325 63.64599609 58.24291992 C64.87035653 56.29323342 64.87035653 56.29323342 65.64599609 54.24291992 C67.27099609 52.49291992 67.27099609 52.49291992 68.64599609 51.24291992 C68.5057019 53.38912252 68.35861446 55.5348821 68.20849609 57.68041992 C68.08667969 59.47286133 68.08667969 59.47286133 67.96240234 61.30151367 C67.64599609 64.24291992 67.64599609 64.24291992 66.64599609 65.24291992 C56.99648261 66.28613971 47.2814415 66.38859921 37.58569336 66.37231445 C36.26986771 66.37406677 34.95404205 66.37581909 33.5983429 66.37762451 C30.04094656 66.3821213 26.48357973 66.38044262 22.92618299 66.37724543 C19.17970538 66.3746849 15.43323004 66.37706918 11.68675232 66.37863159 C5.40729322 66.38044105 -0.87215404 66.37807765 -7.15161133 66.37329102 C-14.3936814 66.36783411 -21.63572337 66.36962632 -28.87779278 66.37511742 C-35.12615398 66.37966373 -41.37450675 66.38029217 -47.62286907 66.37767875 C-51.34191636 66.37612646 -55.06095045 66.37589366 -58.77999687 66.37921524 C-62.91983569 66.38265594 -67.05962638 66.37787946 -71.19946289 66.37231445 C-72.41883545 66.37433868 -73.63820801 66.37636292 -74.89453125 66.37844849 C-86.9799771 66.34838719 -86.9799771 66.34838719 -92.35400391 65.24291992 C-94.54394639 61.9580062 -94.7067773 60.41196353 -94.97900391 56.55541992 C-95.05376953 55.56155273 -95.12853516 54.56768555 -95.20556641 53.54370117 C-95.27904297 52.40481445 -95.27904297 52.40481445 -95.35400391 51.24291992 C-94.68304688 51.82299805 -94.68304688 51.82299805 -93.99853516 52.41479492 C-93.39396484 52.93557617 -92.78939453 53.45635742 -92.16650391 53.99291992 C-91.27898437 54.75862305 -91.27898437 54.75862305 -90.37353516 55.53979492 C-89.70708984 56.10182617 -89.04064453 56.66385742 -88.35400391 57.24291992 C-87.69859619 57.92926514 -87.04318848 58.61561035 -86.36791992 59.32275391 C-81.98876468 62.11271389 -78.19990099 61.76196135 -73.11181641 61.66870117 C-72.11125214 61.66541306 -71.11068787 61.66212494 -70.07980347 61.65873718 C-66.87909657 61.64301161 -63.6794387 61.59905345 -60.47900391 61.55541992 C-58.36442929 61.54392063 -56.2498446 61.53413782 -54.13525391 61.52612305 C-48.20639095 61.4923467 -42.28099212 61.39480105 -36.35400391 61.24291992 C-35.5419046 61.22214386 -34.7298053 61.2013678 -33.89309692 61.17996216 C-31.77820855 61.1152557 -29.66652214 61.0261623 -27.55322266 60.92260742 C-26.41715576 60.86959473 -25.28108887 60.81658203 -24.1105957 60.76196289 C-21.02263526 60.180526 -19.97794258 59.47757187 -18.04150391 57.05541992 C-16.38420401 53.95759774 -15.45814457 50.57006 -14.35400391 47.24291992 C-15.32009079 47.24958176 -16.28617767 47.25624359 -17.28153992 47.2631073 C-26.38923947 47.32394164 -35.49689776 47.36890372 -44.60475445 47.39835644 C-49.28712626 47.41400747 -53.96933396 47.43523548 -58.65161133 47.46923828 C-63.17089767 47.50185178 -67.69002621 47.51977718 -72.20942116 47.52755165 C-73.93299658 47.53309158 -75.65656345 47.54390976 -77.38007164 47.56011009 C-79.79564401 47.58191105 -82.21056567 47.58488577 -84.6262207 47.58349609 C-85.69329254 47.59967484 -85.69329254 47.59967484 -86.78192139 47.61618042 C-91.54833444 47.5865403 -94.92782212 46.66910171 -98.35400391 43.24291992 C-98.51086639 41.6834345 -98.60477029 40.11749324 -98.67041016 38.55151367 C-98.70851807 37.70129639 -98.74662598 36.8510791 -98.78588867 35.97509766 C-98.85054321 34.34423218 -98.85054321 34.34423218 -98.91650391 32.68041992 C-99.06087891 29.23604492 -99.20525391 25.79166992 -99.35400391 22.24291992 C-88.46400391 22.24291992 -77.57400391 22.24291992 -66.35400391 22.24291992 C-66.35400391 15.31291992 -66.35400391 8.38291992 -66.35400391 1.24291992 C-50.51400391 1.24291992 -34.67400391 1.24291992 -18.35400391 1.24291992 C-17.85900391 2.72791992 -17.85900391 2.72791992 -17.35400391 4.24291992 C-12.7859228 3.09770009 -12.7859228 3.09770009 -8.51675415 1.18778992 C-5.59385483 -0.0891767 -3.18577664 -0.00400533 0 0 Z " fill="#020202" transform="translate(404.35400390625,191.757080078125)"/>
<path d="M0 0 C1.010625 0.19335938 2.02125 0.38671875 3.0625 0.5859375 C29.81618861 6.30825423 56.02616548 22.55181961 75 42 C75.76570313 42.71542969 75.76570313 42.71542969 76.546875 43.4453125 C82.11565241 48.73309655 86.54822245 54.76295329 91 61 C91.38961914 61.54479004 91.77923828 62.08958008 92.18066406 62.65087891 C99 72.25994318 99 72.25994318 99 77 C99.66 77 100.32 77 101 77 C101.31453125 77.83402344 101.6290625 78.66804688 101.953125 79.52734375 C103.93667303 84.74311915 105.91632333 89.92940105 108.25 95 C109.61200744 97.98213727 110.57673941 100.71973044 111 104 C101.86359575 100.61252748 94.05605004 94.39652746 86.22436523 88.7109375 C81.59110766 85.36508792 76.81735525 82.31414955 71.9140625 79.375 C71.28242187 78.92125 70.65078125 78.4675 70 78 C70 77.34 70 76.68 70 76 C69.27425781 75.7421875 68.54851562 75.484375 67.80078125 75.21875 C64.87952333 73.94757501 62.69127351 72.45983598 60.1875 70.5 C59.39730469 69.8915625 58.60710937 69.283125 57.79296875 68.65625 C57.20128906 68.1096875 56.60960937 67.563125 56 67 C56 66.34 56 65.68 56 65 C55.28457031 64.74605469 54.56914063 64.49210937 53.83203125 64.23046875 C48.68366392 61.99359191 44.43394317 58.39768167 40 55 C39.31679688 54.49855469 38.63359375 53.99710938 37.9296875 53.48046875 C30.0191959 47.20834256 24.50950128 38.26649264 18.6640625 30.14355469 C17.46998897 28.48687038 16.26650205 26.83698281 15.0625 25.1875 C14.39347656 24.25292969 13.72445312 23.31835938 13.03515625 22.35546875 C10.25540338 19.13821159 8.14625536 17.23414127 3.7956543 16.75952148 C-2.17839925 16.62510964 -7.80496907 17.48714668 -13.625 18.75 C-14.49326416 18.93119385 -15.36152832 19.1123877 -16.25610352 19.29907227 C-22.8071088 20.68762342 -29.30072012 22.25755879 -35.78515625 23.9296875 C-41.65535782 25.43953348 -47.56315164 26.79712414 -53.46850586 28.16186523 C-55.98513477 28.75225172 -58.49334254 29.36866673 -61 30 C-62.35629517 30.33294067 -62.35629517 30.33294067 -63.73999023 30.67260742 C-68.867291 31.99064221 -68.867291 31.99064221 -73.11328125 34.98046875 C-73.50902344 35.70878906 -73.90476562 36.43710938 -74.3125 37.1875 C-74.76753906 37.97382812 -75.22257812 38.76015625 -75.69140625 39.5703125 C-76.33916016 40.77300781 -76.33916016 40.77300781 -77 42 C-77.90506332 43.52776706 -78.82099844 45.04916993 -79.75 46.5625 C-80.13671875 47.22378906 -80.5234375 47.88507813 -80.921875 48.56640625 C-81.27765625 49.03949219 -81.6334375 49.51257813 -82 50 C-82.66 50 -83.32 50 -84 50 C-84.78670772 47.21945349 -85.12265947 44.76039307 -85.11352539 41.87402344 C-85.11344986 41.07349548 -85.11337433 40.27296753 -85.11329651 39.44818115 C-85.10813522 38.59387512 -85.10297394 37.73956909 -85.09765625 36.859375 C-85.0962413 35.97719299 -85.09482635 35.09501099 -85.09336853 34.18609619 C-85.08778001 31.37402935 -85.07522961 28.5620427 -85.0625 25.75 C-85.05748352 23.84114698 -85.05292087 21.93229272 -85.04882812 20.0234375 C-85.03781434 15.34892753 -85.02055758 10.67447735 -85 6 C-79.16312045 3.40413994 -73.54815752 1.76547009 -67.3125 0.375 C-66.39533203 0.1584375 -65.47816406 -0.058125 -64.53320312 -0.28125 C-43.66795357 -5.00545745 -20.83589399 -4.56852594 0 0 Z " fill="#040404" transform="translate(586,69)"/>
<path d="M0 0 C1.15623619 -0.00021904 1.15623619 -0.00021904 2.33583069 -0.0004425 C4.88976838 0.0002555 7.4436336 0.00804264 9.99755859 0.01586914 C11.76589925 0.01773372 13.53424043 0.01915743 15.30258179 0.02015686 C19.96164369 0.02397889 24.62067452 0.03380651 29.27972412 0.04486084 C34.03201884 0.0550817 38.78431856 0.05965593 43.53662109 0.06469727 C52.86475976 0.07542905 62.19287535 0.09250172 71.52099609 0.11352539 C72.01599609 3.08352539 72.01599609 3.08352539 72.52099609 6.11352539 C71.53099609 5.61852539 71.53099609 5.61852539 70.52099609 5.11352539 C70.02599609 6.04165039 69.53099609 6.96977539 69.02099609 7.92602539 C66.39548677 11.90179665 62.96891122 12.90598593 58.52099609 14.11352539 C57.91737244 14.28705536 57.31374878 14.46058533 56.6918335 14.63937378 C54.32669275 15.15596489 52.20785217 15.24057085 49.78759766 15.24291992 C48.85272522 15.24607208 47.91785278 15.24922424 46.95465088 15.25247192 C45.95045105 15.25044769 44.94625122 15.24842346 43.91162109 15.24633789 C42.35045563 15.24777298 42.35045563 15.24777298 40.75775146 15.24923706 C38.55546 15.24991735 36.35316652 15.24807357 34.15087891 15.24389648 C30.79764229 15.23856774 27.44454093 15.24383543 24.09130859 15.25024414 C21.94807913 15.24958291 19.80484976 15.24830082 17.66162109 15.24633789 C16.66551819 15.24836212 15.66941528 15.25038635 14.64312744 15.25247192 C0.07711817 15.20401249 0.07711817 15.20401249 -3.50244141 12.69555664 C-6.35282356 8.96369793 -8.34403505 5.7668977 -9.47900391 1.11352539 C-6.45136061 -0.40029626 -3.31998838 -0.01631713 0 0 Z " fill="#F3F3F3" transform="translate(401.47900390625,238.886474609375)"/>
<path d="M0 0 C2.31 0 4.62 0 7 0 C7.2784375 0.57492188 7.556875 1.14984375 7.84375 1.7421875 C8.97073481 3.94285378 10.19208594 6.02755246 11.5 8.125 C11.9228125 8.80820313 12.345625 9.49140625 12.78125 10.1953125 C14.00718424 12.13402326 14.00718424 12.13402326 16 14 C22.27013616 15.11401966 28.50415439 15.17530962 34.859375 15.203125 C36.39782074 15.21167511 36.39782074 15.21167511 37.96734619 15.22039795 C40.12893659 15.22980313 42.29054104 15.23636399 44.45214844 15.24023438 C47.72617094 15.24992944 50.99956218 15.28099203 54.2734375 15.3125 C69.53374916 15.96543333 69.53374916 15.96543333 84 12 C85.22436043 10.0503135 85.22436043 10.0503135 86 8 C87.625 6.25 87.625 6.25 89 5 C88.85970581 7.1462026 88.71261836 9.29196218 88.5625 11.4375 C88.44068359 13.22994141 88.44068359 13.22994141 88.31640625 15.05859375 C88 18 88 18 87 19 C77.35048652 20.04321979 67.63544541 20.14567929 57.93969727 20.12939453 C56.62387161 20.13114685 55.30804596 20.13289917 53.9523468 20.13470459 C50.39495046 20.13920138 46.83758364 20.1375227 43.28018689 20.1343255 C39.53370929 20.13176498 35.78723394 20.13414926 32.04075623 20.13571167 C25.76129713 20.13752113 19.48184987 20.13515773 13.20239258 20.13037109 C5.96032251 20.12491419 -1.28171946 20.1267064 -8.52378887 20.1321975 C-14.77215007 20.13674381 -21.02050285 20.13737224 -27.26886517 20.13475883 C-30.98791245 20.13320654 -34.70694655 20.13297374 -38.42599297 20.13629532 C-42.56583179 20.13973601 -46.70562247 20.13495954 -50.84545898 20.12939453 C-52.06483154 20.13141876 -53.2842041 20.13344299 -54.54052734 20.13552856 C-66.62597319 20.10546727 -66.62597319 20.10546727 -72 19 C-74.18994248 15.71508627 -74.35277339 14.16904361 -74.625 10.3125 C-74.69976562 9.31863281 -74.77453125 8.32476562 -74.8515625 7.30078125 C-74.90054687 6.54152344 -74.94953125 5.78226563 -75 5 C-74.32904297 5.58007812 -74.32904297 5.58007812 -73.64453125 6.171875 C-73.03996094 6.69265625 -72.43539063 7.2134375 -71.8125 7.75 C-71.22082031 8.26046875 -70.62914062 8.7709375 -70.01953125 9.296875 C-69.35308594 9.85890625 -68.68664062 10.4209375 -68 11 C-67.34459229 11.68634521 -66.68918457 12.37269043 -66.01391602 13.07983398 C-61.63476077 15.86979397 -57.84589709 15.51904143 -52.7578125 15.42578125 C-51.75724823 15.42249313 -50.75668396 15.41920502 -49.72579956 15.41581726 C-46.52509266 15.40009168 -43.32543479 15.35613353 -40.125 15.3125 C-38.01042538 15.3010007 -35.89584069 15.29121789 -33.78125 15.28320312 C-27.85238705 15.24942678 -21.92698821 15.15188113 -16 15 C-15.1879007 14.97922394 -14.37580139 14.95844788 -13.53909302 14.93704224 C-11.42420464 14.87233578 -9.31251823 14.78324238 -7.19921875 14.6796875 C-6.06315186 14.6266748 -4.92708496 14.57366211 -3.7565918 14.51904297 C-0.66591926 13.93709542 0.37857562 13.24118226 2.3125 10.8125 C3.31317519 8.94915173 3.31317519 8.94915173 4 7 C4.433125 5.865625 4.86625 4.73125 5.3125 3.5625 C5.539375 2.716875 5.76625 1.87125 6 1 C4.02 1 2.04 1 0 1 C0 0.67 0 0.34 0 0 Z " fill="#1A1A1A" transform="translate(384,238)"/>
<path d="M0 0 C4.29 0 8.58 0 13 0 C17.59225513 24.00683371 17.59225513 24.00683371 17 36 C11.39 36 5.78 36 0 36 C0 24.12 0 12.24 0 0 Z " fill="#F7F7F7" transform="translate(539,180)"/>
<path d="M0 0 C0.75785797 -0.00175232 1.51571594 -0.00350464 2.29653931 -0.00531006 C4.80839306 -0.009721 7.32017674 -0.00679324 9.83203125 -0.00341797 C11.57316095 -0.00409123 13.31429055 -0.00506143 15.05541992 -0.00631714 C18.7072031 -0.00779308 22.35896184 -0.00564286 26.01074219 -0.00097656 C30.69854172 0.00472066 35.38628399 0.00144111 40.07408142 -0.00454903 C43.67021112 -0.00815742 47.26632717 -0.00701477 50.86245728 -0.00442123 C52.59127814 -0.00375274 54.32010024 -0.00457771 56.04891968 -0.00690079 C58.46233413 -0.00943185 60.87565504 -0.00558028 63.2890625 0 C64.36759995 -0.00303635 64.36759995 -0.00303635 65.46792603 -0.00613403 C70.41600229 0.01513005 70.41600229 0.01513005 72.64453125 1.12939453 C72.64453125 2.44939453 72.64453125 3.76939453 72.64453125 5.12939453 C45.91453125 5.12939453 19.18453125 5.12939453 -8.35546875 5.12939453 C-8.68546875 3.80939453 -9.01546875 2.48939453 -9.35546875 1.12939453 C-6.35915596 -0.36876186 -3.28544184 -0.00924932 0 0 Z " fill="#F2F2F2" transform="translate(189.35546875,103.87060546875)"/>
<path d="M0 0 C0.65689316 -0.00095673 1.31378632 -0.00191345 1.99058533 -0.00289917 C3.37661841 -0.00357863 4.7626547 -0.00174064 6.14868164 0.00244141 C8.27302158 0.00780159 10.39715092 0.0024842 12.52148438 -0.00390625 C13.86849005 -0.00324559 15.2154956 -0.00196469 16.5625 0 C17.78976807 0.00112793 19.01703613 0.00225586 20.28149414 0.00341797 C23.21484375 0.1328125 23.21484375 0.1328125 25.21484375 1.1328125 C25.21484375 2.4528125 25.21484375 3.7728125 25.21484375 5.1328125 C22.20879413 6.63583731 19.43818403 6.26275827 16.08984375 6.265625 C15.03579346 6.26706009 15.03579346 6.26706009 13.96044922 6.26852417 C12.47428294 6.26920488 10.98811369 6.2673582 9.50195312 6.26318359 C7.22389056 6.25783375 4.94602516 6.26313222 2.66796875 6.26953125 C1.22525998 6.26887045 -0.21744867 6.26758925 -1.66015625 6.265625 C-2.97757813 6.26449707 -4.295 6.26336914 -5.65234375 6.26220703 C-8.78515625 6.1328125 -8.78515625 6.1328125 -10.78515625 5.1328125 C-10.47265625 3.1953125 -10.47265625 3.1953125 -9.78515625 1.1328125 C-6.33424642 -0.01749078 -3.63875813 0.00334116 0 0 Z " fill="#E9E9E9" transform="translate(190.78515625,165.8671875)"/>
<path d="M0 0 C0.66 0 1.32 0 2 0 C2.02531484 7.35065985 2.04285202 14.7013085 2.05493164 22.05200195 C2.05996641 24.55363383 2.06679461 27.05526276 2.07543945 29.55688477 C2.08754238 33.14860766 2.09323682 36.74029172 2.09765625 40.33203125 C2.10281754 41.45398392 2.10797882 42.57593658 2.11329651 43.73188782 C2.11337204 44.77274033 2.11344757 45.81359283 2.11352539 46.88598633 C2.115746 47.80309891 2.11796661 48.72021149 2.12025452 49.66511536 C2 52 2 52 1 55 C0.34 55 -0.32 55 -1 55 C-2.26862954 45.14439813 -2.18614773 35.25338881 -2.18530273 25.33569336 C-2.18751849 22.41310669 -2.2058111 19.49088096 -2.22460938 16.56835938 C-2.2275386 14.71093878 -2.22952654 12.85351641 -2.23046875 10.99609375 C-2.23765427 10.12222519 -2.24483978 9.24835663 -2.25224304 8.3480072 C-2.22886255 2.22886255 -2.22886255 2.22886255 0 0 Z " fill="#272727" transform="translate(261,172)"/>
<path d="M0 0 C0 6.27 0 12.54 0 19 C-3.3 19 -6.6 19 -10 19 C-10.08071788 16.20775927 -10.14035408 13.41783434 -10.1875 10.625 C-10.21263672 9.8309375 -10.23777344 9.036875 -10.26367188 8.21875 C-10.29004405 6.14413852 -10.15486462 4.06899135 -10 2 C-7 0 -7 0 0 0 Z " fill="#E4E4E4" transform="translate(211,137)"/>
<path d="M0 0 C0.71039932 0.00202423 1.42079865 0.00404846 2.15272522 0.00613403 C2.87903641 0.00517731 3.6053476 0.00422058 4.35366821 0.00323486 C5.89288927 0.00255309 7.43211318 0.00440716 8.97132874 0.00857544 C11.33068804 0.0139161 13.68985631 0.00863438 16.04920959 0.00222778 C17.54204856 0.00288872 19.0348874 0.00417019 20.52772522 0.00613403 C21.59028786 0.00309769 21.59028786 0.00309769 22.67431641 0 C27.67671718 0.02398939 27.67671718 0.02398939 29.90663147 1.13894653 C29.57663147 2.45894653 29.24663147 3.77894653 28.90663147 5.13894653 C17.68663147 5.13894653 6.46663147 5.13894653 -5.09336853 5.13894653 C-5.42336853 3.81894653 -5.75336853 2.49894653 -6.09336853 1.13894653 C-4.3931885 -0.5612335 -2.26766718 0.01092717 0 0 Z " fill="#F1F1F1" transform="translate(186.09336853027344,227.86105346679688)"/>
<path d="M0 0 C1.65 0 3.3 0 5 0 C4.49609829 7.76595067 2.92591279 15.03599648 1 22.5625 C-0.82563983 29.72296945 -2.38111571 36.62754092 -3 44 C-3.66 44 -4.32 44 -5 44 C-5.8946476 39.69533624 -5.96721623 36.23150005 -5.29296875 31.89453125 C-5.0309668 30.17073242 -5.0309668 30.17073242 -4.76367188 28.41210938 C-4.57353516 27.22423828 -4.38339844 26.03636719 -4.1875 24.8125 C-4.00896484 23.64396484 -3.83042969 22.47542969 -3.64648438 21.27148438 C-2.54764257 14.15876466 -1.32800157 7.0733841 0 0 Z " fill="#181818" transform="translate(510,250)"/>
<path d="M0 0 C9.57 0 19.14 0 29 0 C29.33 1.32 29.66 2.64 30 4 C29 5 29 5 26.22436523 5.11352539 C25.01466064 5.10828857 23.80495605 5.10305176 22.55859375 5.09765625 C21.25341797 5.09443359 19.94824219 5.09121094 18.60351562 5.08789062 C17.2148431 5.07953401 15.82617123 5.07106905 14.4375 5.0625 C13.04492344 5.05748666 11.65234519 5.05292347 10.25976562 5.04882812 C6.8398013 5.03699434 3.41992156 5.0205088 0 5 C0 3.35 0 1.7 0 0 Z " fill="#FBFBFB" transform="translate(539,243)"/>
<path d="M0 0 C2.97 0 5.94 0 9 0 C9 5.28 9 10.56 9 16 C6.03 16 3.06 16 0 16 C0 10.72 0 5.44 0 0 Z " fill="#FAFAFA" transform="translate(223,138)"/>
<path d="M0 0 C2 1 2 1 2.61889648 2.60058594 C3.14048269 5.88447399 3.11085058 9.06565271 3.09765625 12.390625 C3.0962413 13.09523865 3.09482635 13.79985229 3.09336853 14.52581787 C3.08778933 16.76725584 3.07524073 19.00859243 3.0625 21.25 C3.05748231 22.77343605 3.05291987 24.29687368 3.04882812 25.8203125 C3.03782674 29.54690772 3.02057646 33.27344396 3 37 C2.67 37 2.34 37 2 37 C1.67 29.41 1.34 21.82 1 14 C-0.88631543 15.88631543 -0.24265292 19.14200693 -0.31640625 21.66015625 C-0.33718735 22.32462265 -0.35796844 22.98908905 -0.37937927 23.6736908 C-0.44493658 25.80318543 -0.50378785 27.93280668 -0.5625 30.0625 C-0.60567939 31.50326847 -0.64929349 32.94402399 -0.69335938 34.38476562 C-0.80062393 37.9230404 -0.90187371 41.46145869 -1 45 C-1.33 45 -1.66 45 -2 45 C-2.02505701 40.66243856 -2.04302559 36.32491749 -2.05493164 31.98730469 C-2.05990456 30.51724512 -2.06668527 29.04719035 -2.07543945 27.57714844 C-2.18295749 9.03344871 -2.18295749 9.03344871 -1 1 C-0.67 0.67 -0.34 0.34 0 0 Z " fill="#3A3A3A" transform="translate(260,235)"/>
<path d="M0 0 C0.72585297 0.04247864 1.45170593 0.08495728 2.19955444 0.12872314 C3.73134724 0.22113707 5.26282048 0.31898547 6.79394531 0.421875 C9.14581172 0.57795075 11.49822044 0.71202576 13.8515625 0.84375 C15.33862386 0.93618716 16.82560698 1.02989345 18.3125 1.125 C19.01976227 1.1646991 19.72702454 1.20439819 20.45571899 1.24530029 C22.15179968 1.36606092 23.84016874 1.58754423 25.5234375 1.828125 C26.0184375 2.818125 26.0184375 2.818125 26.5234375 3.828125 C21.73626208 3.87755965 16.94923523 3.91386082 12.16186523 3.93798828 C10.53325818 3.94804642 8.90466918 3.96169458 7.27612305 3.97900391 C4.93533878 4.00326074 2.59479326 4.01460983 0.25390625 4.0234375 C-0.83843071 4.03892136 -0.83843071 4.03892136 -1.95283508 4.05471802 C-5.68931319 4.05554749 -7.28331306 3.95695796 -10.4765625 1.828125 C-6.77782202 -0.63770198 -4.23727365 -0.28799892 0 0 Z " fill="#0F0F0F" transform="translate(474.4765625,154.171875)"/>
<path d="M0 0 C0.33 0 0.66 0 1 0 C1 26.07 1 52.14 1 79 C-0.98 78.67 -2.96 78.34 -5 78 C-4.34 77.01 -3.68 76.02 -3 75 C-2.01 75 -1.02 75 0 75 C0 50.25 0 25.5 0 0 Z " fill="#A3A3A3" transform="translate(533,164)"/>
<path d="M0 0 C0.99 0 1.98 0 3 0 C4.95031692 4.07723734 5.21581971 7.31692422 5.125 11.8125 C5.10695312 12.97394531 5.08890625 14.13539063 5.0703125 15.33203125 C5.04710937 16.21246094 5.02390625 17.09289062 5 18 C3.68 18 2.36 18 1 18 C-0.59412284 14.81175432 -0.10174735 11.37103338 -0.0625 7.875 C-0.05798828 7.12089844 -0.05347656 6.36679688 -0.04882812 5.58984375 C-0.03703499 3.72652873 -0.01909942 1.86325445 0 0 Z " fill="#E3E3E3" transform="translate(203,182)"/>
<path d="M0 0 C1.2065625 0.0309375 1.2065625 0.0309375 2.4375 0.0625 C2.29629286 2.00034265 2.14937127 3.93776955 2 5.875 C1.91878906 6.95394531 1.83757812 8.03289062 1.75390625 9.14453125 C1.4375 12.0625 1.4375 12.0625 0.4375 15.0625 C-0.2225 15.0625 -0.8825 15.0625 -1.5625 15.0625 C-3.95556591 5.25520308 -3.95556591 5.25520308 -3.5625 1.0625 C-2.5625 0.0625 -2.5625 0.0625 0 0 Z " fill="#393939" transform="translate(474.5625,275.9375)"/>
<path d="M0 0 C1.98 0 3.96 0 6 0 C5.91266424 1.60517097 5.80447776 3.20921662 5.6875 4.8125 C5.62949219 5.70582031 5.57148438 6.59914063 5.51171875 7.51953125 C4.93686419 10.30604 4.1793144 11.24135754 2 13 C0.21590198 9.93753253 -0.22880021 7.77920727 -0.125 4.25 C-0.10695313 3.45078125 -0.08890625 2.6515625 -0.0703125 1.828125 C-0.04710937 1.22484375 -0.02390625 0.6215625 0 0 Z " fill="#111111" transform="translate(306,276)"/>
<path d="M0 0 C2.97456565 5.55252254 3.05201792 8.96365086 2.0625 15.25 C1.86785156 16.51328125 1.67320312 17.7765625 1.47265625 19.078125 C1.31667969 20.04234375 1.16070312 21.0065625 1 22 C0.34 22 -0.32 22 -1 22 C-2.14457157 16.92546589 -1.80002019 12.69144304 -1.0625 7.625 C-0.96259766 6.88894531 -0.86269531 6.15289062 -0.75976562 5.39453125 C-0.51441035 3.59525923 -0.25830463 1.79745869 0 0 Z " fill="#2D2D2D" transform="translate(506,272)"/>
<path d="M0 0 C0.66 0 1.32 0 2 0 C1.67 0.99 1.34 1.98 1 3 C0.84586124 5.87438548 0.74252715 8.72898986 0.68359375 11.60546875 C0.66281265 12.44467361 0.64203156 13.28387848 0.62062073 14.14851379 C0.55525982 16.82809294 0.49630286 19.50776969 0.4375 22.1875 C0.39430198 24.00456737 0.35068727 25.82162488 0.30664062 27.63867188 C0.1995922 32.09234799 0.09828681 36.54612226 0 41 C-0.33 41 -0.66 41 -1 41 C-1.02464705 35.32169922 -1.04283462 29.64342931 -1.05493164 23.96508789 C-1.05997256 22.03181415 -1.06680519 20.09854424 -1.07543945 18.1652832 C-1.08751565 15.39273128 -1.09323057 12.62022959 -1.09765625 9.84765625 C-1.10281754 8.97786636 -1.10797882 8.10807648 -1.11329651 7.21192932 C-1.11349185 5.14094186 -1.06208168 3.07005676 -1 1 C-0.67 0.67 -0.34 0.34 0 0 Z " fill="#6C6C6C" transform="translate(502,74)"/>
<path d="M0 0 C0.33 0 0.66 0 1 0 C1 8.91 1 17.82 1 27 C-0.98 26.67 -2.96 26.34 -5 26 C-4.01 24.515 -4.01 24.515 -3 23 C-2.01 23 -1.02 23 0 23 C0 15.41 0 7.82 0 0 Z " fill="#818181" transform="translate(533,216)"/>
<path d="M0 0 C2.01822917 0.06510417 4.03645833 0.13020833 6.0546875 0.1953125 C5.7246875 1.5153125 5.3946875 2.8353125 5.0546875 4.1953125 C1.6796875 4.3203125 1.6796875 4.3203125 -1.9453125 4.1953125 C-2.6053125 3.5353125 -3.2653125 2.8753125 -3.9453125 2.1953125 C-1.9453125 0.1953125 -1.9453125 0.1953125 0 0 Z " fill="#0F0F0F" transform="translate(467.9453125,234.8046875)"/>
<path d="M0 0 C3.3 0 6.6 0 10 0 C10 0.66 10 1.32 10 2 C6.78548731 3.60725635 3.56387464 3.05748185 0 3 C0 2.01 0 1.02 0 0 Z " fill="#C2C2C2" transform="translate(232,132)"/>
<path d="M0 0 C2.97 0 5.94 0 9 0 C9.33 0.66 9.66 1.32 10 2 C6.78548731 3.60725635 3.56387464 3.05748185 0 3 C0 2.01 0 1.02 0 0 Z " fill="#BFBFBF" transform="translate(213,132)"/>
<path d="M0 0 C0.99 0 1.98 0 3 0 C4.125 5.625 4.125 5.625 3 9 C2.34 9 1.68 9 1 9 C0.67 6.03 0.34 3.06 0 0 Z " fill="#121212" transform="translate(472,282)"/>
<path d="M0 0 C2.31 0 4.62 0 7 0 C6.01 0.33 5.02 0.66 4 1 C4.66 2.32 5.32 3.64 6 5 C4.02 4.34 2.04 3.68 0 3 C0 2.01 0 1.02 0 0 Z " fill="#2B2B2B" transform="translate(524,250)"/>
<path d="M0 0 C1.98 0 3.96 0 6 0 C6 1.32 6 2.64 6 4 C3.03 3.505 3.03 3.505 0 3 C0 2.01 0 1.02 0 0 Z " fill="#303030" transform="translate(306,276)"/>
<path d="M0 0 C0.66 0 1.32 0 2 0 C2 1.65 2 3.3 2 5 C0.68 5.33 -0.64 5.66 -2 6 C-1.125 1.125 -1.125 1.125 0 0 Z " fill="#252525" transform="translate(261,159)"/>
<path d="M0 0 C0.99 0 1.98 0 3 0 C2.67 2.31 2.34 4.62 2 7 C1.34 6.67 0.68 6.34 0 6 C0 4.02 0 2.04 0 0 Z " fill="#070707" transform="translate(507,270)"/>
<path d="M0 0 C0.33 0 0.66 0 1 0 C1 2.31 1 4.62 1 7 C-1.97 6.505 -1.97 6.505 -5 6 C-4.34 5.01 -3.68 4.02 -3 3 C-2.01 3 -1.02 3 0 3 C0 2.01 0 1.02 0 0 Z " fill="#727272" transform="translate(533,236)"/>
</svg>
